<svg width="18" height="18" viewBox="0 0 18 18" fill="none" xmlns="http://www.w3.org/2000/svg">
<path d="M17 12.4998C15.75 12.4998 14.55 12.2998 13.43 11.9298C13.08 11.8198 12.69 11.8998 12.41 12.1698L10.21 14.3698C7.38 12.9298 5.06 10.6198 3.62 7.78976L5.82 5.57976C6.1 5.30976 6.18 4.91976 6.07 4.56976C5.7 3.44976 5.5 2.24976 5.5 0.999756C5.5 0.449756 5.05 -0.000244141 4.5 -0.000244141H1C0.45 -0.000244141 0 0.449756 0 0.999756C0 10.3898 7.61 17.9998 17 17.9998C17.55 17.9998 18 17.5498 18 16.9998V13.4998C18 12.9498 17.55 12.4998 17 12.4998ZM9 -0.000244141V9.99976L12 6.99976H18V-0.000244141H9Z" fill="white"/>
</svg>
